<svg width="50" height="50" viewBox="0 0 50 50" fill="none" xmlns="http://www.w3.org/2000/svg">
<mask id="mask0" mask-type="alpha" maskUnits="userSpaceOnUse" x="0" y="0" width="50" height="50">
<path d="M39.3305 0.208649H10.6696C4.77693 0.208649 0 4.98558 0 10.8782V39.3304C0 45.2232 4.77693 50 10.6696 50H39.3305C45.2232 50 50 45.2232 50 39.3304V10.8782C50 4.98558 45.2232 0.208649 39.3305 0.208649Z" fill="white"/>
</mask>
<g mask="url(#mask0)">
<path d="M50.1865 -1.37203H-1.97583V50H50.1865V-1.37203Z" fill="url(#paint0_linear)"/>
<path fill-rule="evenodd" clip-rule="evenodd" d="M36.6254 13.3628C38.2158 14.9516 38.2171 17.529 36.6282 19.1194C36.6273 19.1203 36.6263 19.1213 36.6254 19.1223L25.007 30.7291L19.2417 24.9696L30.8601 13.3628C32.4526 11.7719 35.0329 11.7719 36.6254 13.3628Z" fill="white"/>
<path fill-rule="evenodd" clip-rule="evenodd" d="M13.0037 13.7049C14.5682 12.0865 17.148 12.0414 18.7679 13.6043L30.5875 25.0069L24.9237 30.866L13.1042 19.4634C11.4863 17.9026 11.44 15.3257 13.0009 13.7078C13.0018 13.7068 13.0027 13.7059 13.0037 13.7049Z" fill="white"/>
<path fill-rule="evenodd" clip-rule="evenodd" d="M12.8377 37.2453C14.4577 38.8082 17.0376 38.7632 18.6021 37.1447L24.2363 31.3162L18.3713 25.6581L12.7372 31.4866C11.1747 33.103 11.2184 35.68 12.8348 37.2425C12.8357 37.2435 12.8367 37.2444 12.8377 37.2453Z" fill="white"/>
<path fill-rule="evenodd" clip-rule="evenodd" d="M37.1788 36.8786C35.5863 38.4695 33.0061 38.4695 31.4136 36.8786L25.6784 31.1491L31.4437 25.3896L37.1788 31.1191C38.7693 32.7079 38.7706 35.2852 37.1817 36.8757C37.1808 36.8767 37.1798 36.8776 37.1788 36.8786Z" fill="white"/>
</g>
<defs>
<linearGradient id="paint0_linear" x1="24.1054" y1="50" x2="24.1054" y2="-1.37203" gradientUnits="userSpaceOnUse">
<stop stop-color="#B5CBD8"/>
<stop offset="1" stop-color="#A7C6D6"/>
</linearGradient>
</defs>
</svg>
